<svg id="Layer_1" data-name="Layer 1" xmlns="http://www.w3.org/2000/svg" viewBox="0 0 1693.917 379.917"><defs><style>.cls-1{fill:#fff;}</style></defs><title>rd_horizontal_branco</title><path class="cls-1" d="M98.064,107.038a268,268,0,0,1,40.624-2.8c20.012,0,34.02,3,43.626,10.6,8,6.4,12.409,15.814,12.409,28.221,0,17.209-12.208,29.019-23.817,33.219v0.6c9.408,3.8,14.61,12.808,18.012,25.214,4.2,15.207,8.407,32.817,11.006,38.022H168.706c-2.2-3.8-5.4-14.81-9.405-31.417-3.6-16.813-9.405-21.415-21.814-21.616h-9.2V240.12H98.064V107.038Zm30.218,58.037H140.29c15.209,0,24.213-7.6,24.213-19.413,0-12.406-8.4-18.609-22.414-18.81a76.6,76.6,0,0,0-13.806,1v37.224Z"/><path class="cls-1" d="M233.681,200.893c1,12.613,13.408,18.615,27.616,18.615a86.075,86.075,0,0,0,27.016-4.005l4,20.612c-10,4.005-22.213,6.008-35.422,6.008-33.219,0-52.23-19.212-52.23-49.831,0-24.813,15.407-52.23,49.43-52.23,31.618,0,43.628,24.612,43.628,48.827a72.3,72.3,0,0,1-1,12H233.681ZM269.5,180.086c0-7.408-3.2-19.814-17.212-19.814-12.808,0-18.01,11.609-18.81,19.814H269.5Z"/><path class="cls-1" d="M311.307,213.506c5.6,3.4,17.212,7.4,26.215,7.4,9.207,0,13.009-3.2,13.009-8.206s-3-7.4-14.409-11.207c-20.213-6.8-28.017-17.812-27.816-29.415,0-18.213,15.608-32.02,39.824-32.02,11.408,0,21.613,2.6,27.616,5.6l-5.4,21.014c-4.4-2.4-12.808-5.6-21.212-5.6-7.405,0-11.609,3-11.609,8,0,4.6,3.8,7,15.809,11.207,18.612,6.4,26.419,15.809,26.617,30.213,0,18.213-14.409,31.624-42.426,31.624-12.808,0-24.216-2.806-31.618-6.806Z"/><path class="cls-1" d="M485.009,208.7c0,12.808.4,23.212,0.8,31.417H459.393l-1.4-13.806h-0.6c-3.8,6-13.009,16.01-30.62,16.01-19.812,0-34.421-12.412-34.421-42.63V142.259h30.62v52.632c0,14.208,4.6,22.815,15.209,22.815,8.4,0,13.207-5.8,15.209-10.6a17,17,0,0,0,1-6.6V142.259h30.617V208.7Z"/><path class="cls-1" d="M504.519,98.034h30.419V240.12H504.519V98.034Z"/><path class="cls-1" d="M589.306,114.245v28.015H611.12v22.414H589.306V200.1c0,11.809,2.8,17.209,12.007,17.209a50.1,50.1,0,0,0,9.006-.8l0.2,23.011c-4,1.6-11.207,2.6-19.814,2.6-9.8,0-18.01-3.4-22.813-8.407-5.6-5.8-8.4-15.207-8.4-29.019V164.673H546.481V142.259H559.49V121.05Z"/><path class="cls-1" d="M680.139,240.12l-1.8-9.807h-0.6c-6.4,7.8-16.409,12.01-28.017,12.01-19.812,0-31.618-14.409-31.618-30.023,0-25.415,22.813-37.62,57.435-37.42v-1.4c0-5.2-2.8-12.607-17.812-12.607-10,0-20.612,3.4-27.016,7.4l-5.6-19.613c6.8-3.8,20.213-8.6,38.025-8.6,32.619,0,43.026,19.212,43.026,42.223v34.022c0,9.405.4,18.409,1.4,23.814H680.139Zm-3.6-46.228c-16.01-.2-28.419,3.6-28.419,15.407,0,7.8,5.2,11.609,12.007,11.609A16.621,16.621,0,0,0,675.939,209.7a21.89,21.89,0,0,0,.6-5.2v-10.6Z"/><path class="cls-1" d="M819.761,98.034V210.9c0,11.006.4,22.615,0.8,29.219H793.546l-1.4-14.409h-0.4c-6.2,11.006-18.01,16.612-30.617,16.612-23.217,0-41.826-19.814-41.826-50.233-0.2-33.018,20.411-52.029,43.826-52.029,12.007,0,21.413,4.2,25.817,11.006h0.4V98.034h30.419Zm-30.419,85.65a49.507,49.507,0,0,0-.4-5.4c-1.8-8.206-8.407-15.011-17.812-15.011-13.809,0-21.014,12.406-21.014,27.819,0,16.607,8.206,27.016,20.813,27.016,8.805,0,15.812-6,17.611-14.61a25.933,25.933,0,0,0,.8-7.006V183.684Z"/><path class="cls-1" d="M935.749,190.088c0,35.824-25.415,52.236-51.633,52.236-28.617,0-50.629-18.816-50.629-50.434s20.813-51.829,52.23-51.829C915.734,140.061,935.749,160.673,935.749,190.088Zm-70.845,1c0,16.808,7.006,29.415,20.015,29.415,11.8,0,19.413-11.8,19.413-29.415,0-14.61-5.606-29.42-19.413-29.42C870.309,161.672,864.9,176.683,864.9,191.092Z"/><path class="cls-1" d="M948.611,213.506c5.606,3.4,17.215,7.4,26.218,7.4,9.2,0,13.009-3.2,13.009-8.206s-3-7.4-14.409-11.207c-20.21-6.8-28.02-17.812-27.819-29.415,0-18.213,15.614-32.02,39.829-32.02,11.4,0,21.611,2.6,27.613,5.6l-5.4,21.014c-4.407-2.4-12.808-5.6-21.214-5.6-7.4,0-11.609,3-11.609,8,0,4.6,3.8,7,15.809,11.207,18.615,6.4,26.419,15.809,26.62,30.213,0,18.213-14.409,31.624-42.429,31.624-12.808,0-24.216-2.806-31.618-6.806Z"/><path class="cls-1" d="M1038.7,107.038a249.332,249.332,0,0,1,37.018-2.8c25.019,0,42.83,5.8,54.634,16.813,12.01,11.006,19.011,26.614,19.011,48.426,0,22.018-6.8,40.025-19.413,52.431-12.607,12.613-33.42,19.413-59.633,19.413a280.175,280.175,0,0,1-31.618-1.6V107.038Zm17.41,119.276c4.4,0.8,10.805,1,17.611,1,37.219,0,57.435-20.813,57.435-57.234,0.2-31.819-17.812-52.035-54.634-52.035a99.056,99.056,0,0,0-20.411,1.8V226.314Z"/><path class="cls-1" d="M1185.144,116.047c0.2,6-4.206,10.805-11.207,10.805a10.474,10.474,0,0,1-10.61-10.805,10.73,10.73,0,0,1,11.006-11.006C1180.938,105.041,1185.144,109.843,1185.144,116.047ZM1165.531,240.12V143.263h17.611V240.12h-17.611Z"/><path class="cls-1" d="M1289.165,143.263c-0.4,7-.8,14.805-0.8,26.614v56.235c0,22.213-4.4,35.819-13.806,44.225-9.405,8.808-23.016,11.609-35.222,11.609-11.609,0-24.416-2.8-32.221-8l4.4-13.41c6.4,4.005,16.411,7.6,28.422,7.6,18.007,0,31.217-9.405,31.217-33.816V223.508h-0.4c-5.4,9.009-15.809,16.211-30.815,16.211-24.02,0-41.229-20.411-41.229-47.226,0-32.823,21.415-51.432,43.628-51.432,16.813,0,26.017,8.808,30.218,16.813h0.4l0.8-14.61h15.413Zm-18.213,38.223a25.152,25.152,0,0,0-1-8c-3.2-10.208-11.809-18.615-24.617-18.615-16.808,0-28.818,14.213-28.818,36.627,0,19.006,9.606,34.82,28.617,34.82,10.811,0,20.612-6.806,24.416-18.012a30.7,30.7,0,0,0,1.4-9.405v-17.41Z"/><path class="cls-1" d="M1330.188,116.047c0.2,6-4.206,10.805-11.207,10.805a10.474,10.474,0,0,1-10.61-10.805,10.73,10.73,0,0,1,11.006-11.006C1325.982,105.041,1330.188,109.843,1330.188,116.047ZM1310.575,240.12V143.263h17.611V240.12h-17.611Z"/><path class="cls-1" d="M1372.031,121v22.262h25.214v13.4h-25.214V208.9c0,12,3.4,18.81,13.2,18.81a39.052,39.052,0,0,0,10.208-1.2l0.8,13.209c-3.4,1.4-8.808,2.4-15.614,2.4-8.206,0-14.81-2.6-19.011-7.408-5-5.2-6.806-13.806-6.806-25.214V156.668h-15.006v-13.4h15.006V125.6Z"/><path class="cls-1" d="M1465.561,240.12l-1.4-12.205h-0.6c-5.405,7.6-15.814,14.409-29.621,14.409-19.613,0-29.616-13.812-29.616-27.819,0-23.412,20.813-36.22,58.232-36.019v-2c0-8-2.2-22.414-22.012-22.414a48.26,48.26,0,0,0-25.214,7.2l-4.005-11.6c8-5.2,19.613-8.607,31.819-8.607,29.621,0,36.823,20.21,36.823,39.623V216.9a136.546,136.546,0,0,0,1.6,23.217h-16.01Zm-2.6-49.43c-19.212-.4-41.023,3-41.023,21.811,0,11.408,7.6,16.813,16.607,16.813,12.607,0,20.612-8,23.418-16.211a18.5,18.5,0,0,0,1-5.606V190.691Z"/><path class="cls-1" d="M1520.9,116.047c0.2,6-4.206,10.805-11.207,10.805a10.474,10.474,0,0,1-10.61-10.805,10.73,10.73,0,0,1,11.006-11.006C1516.69,105.041,1520.9,109.843,1520.9,116.047ZM1501.282,240.12V143.263h17.611V240.12h-17.611Z"/><path class="cls-1" d="M1538.083,222.108a46.153,46.153,0,0,0,23.217,7.006c12.808,0,18.81-6.4,18.81-14.409,0-8.407-5-13.009-18.012-17.812-17.41-6.2-25.616-15.809-25.616-27.418,0-15.608,12.613-28.416,33.42-28.416,9.807,0,18.414,2.8,23.819,6l-4.407,12.808a37.706,37.706,0,0,0-19.809-5.6c-10.409,0-16.211,6-16.211,13.209,0,8,5.8,11.6,18.409,16.406,16.813,6.4,25.42,14.81,25.42,29.219,0,17.008-13.209,29.019-36.226,29.019-10.6,0-20.411-2.6-27.217-6.6Z"/></svg>